<svg width="22" height="18" viewBox="0 0 22 18" fill="none" xmlns="http://www.w3.org/2000/svg">
<path d="M17.565 2.75877C16.3374 2.17072 15.0247 1.74335 13.6524 1.5C13.4839 1.81196 13.287 2.23156 13.1512 2.56535C11.6924 2.34074 10.247 2.34074 8.81501 2.56535C8.67928 2.23156 8.47791 1.81196 8.30786 1.5C6.93405 1.74335 5.61991 2.17229 4.39228 2.76189C1.91615 6.59273 1.24491 10.3284 1.58053 14.0111C3.22284 15.2667 4.81442 16.0295 6.37915 16.5286C6.76549 15.9842 7.11005 15.4055 7.40689 14.7957C6.84156 14.5757 6.30009 14.3043 5.78847 13.9893C5.9242 13.8863 6.05697 13.7787 6.18524 13.6679C9.30575 15.1622 12.6963 15.1622 15.7795 13.6679C15.9093 13.7787 16.042 13.8863 16.1763 13.9893C15.6631 14.3059 15.1202 14.5773 14.5549 14.7972C14.8517 15.4055 15.1948 15.9858 15.5826 16.5301C17.1488 16.031 18.7419 15.2683 20.3842 14.0111C20.778 9.74195 19.7115 6.04056 17.565 2.75877ZM7.83201 11.7463C6.89527 11.7463 6.12706 10.851 6.12706 9.76066C6.12706 8.67037 6.87886 7.77349 7.83201 7.77349C8.78519 7.77349 9.55337 8.6688 9.53697 9.76066C9.53845 10.851 8.78519 11.7463 7.83201 11.7463ZM14.1327 11.7463C13.196 11.7463 12.4278 10.851 12.4278 9.76066C12.4278 8.67037 13.1795 7.77349 14.1327 7.77349C15.0859 7.77349 15.8541 8.6688 15.8377 9.76066C15.8377 10.851 15.0859 11.7463 14.1327 11.7463Z" fill="#0E0E0E"/>
</svg>
