<svg width="16" height="16" viewBox="0 0 16 16" fill="none" xmlns="http://www.w3.org/2000/svg">
<g clip-path="url(#clip0_742_180)">
<path d="M7.99967 14.6667C9.84061 14.6667 11.5073 13.9205 12.7137 12.7141C13.9201 11.5076 14.6663 9.84097 14.6663 8.00004C14.6663 6.15911 13.9201 4.49244 12.7137 3.28599C11.5073 2.07957 9.84061 1.33337 7.99967 1.33337C6.15874 1.33337 4.49207 2.07957 3.28563 3.28599C2.0792 4.49244 1.33301 6.15911 1.33301 8.00004C1.33301 9.84097 2.0792 11.5076 3.28563 12.7141C4.49207 13.9205 6.15874 14.6667 7.99967 14.6667Z" stroke="#64CA67" stroke-width="1.5" stroke-linejoin="round"/>
<path d="M5.33301 8L7.33301 10L11.333 6" stroke="#64CA67" stroke-width="1.5" stroke-linecap="round" stroke-linejoin="round"/>
</g>
<defs>
<clipPath id="clip0_742_180">
<rect width="16" height="16" fill="white"/>
</clipPath>
</defs>
</svg>
