<svg width="129" height="58" viewBox="0 0 129 58" fill="none" xmlns="http://www.w3.org/2000/svg">
<path d="M83.71 50.6597C88.4956 52.9927 93.4905 54.8321 98.6574 55.8416C104.37 56.9482 110.861 57.038 115.669 53.2544C120.013 49.8297 121.748 43.6982 120.394 38.4116C118.241 30.0144 109.56 26.2234 101.559 25.8869C91.2174 25.4532 82.3491 29.678 73.5781 34.5084C69.1813 36.9311 66.9381 38.3069 66.9381 38.3069C63.1919 35.4356 58.1745 31.2856 58.1745 31.2856C58.1745 31.2856 61.0458 29.3041 61.3225 29.1022C62.8479 27.9731 64.5004 26.687 65.981 25.4981C68.9346 23.1128 71.776 20.6228 74.5127 17.9982C76.8681 15.74 79.246 13.2799 80.7041 10.3188C82.6183 6.43803 81.878 0.471025 76.6438 0.0298547C73.1294 -0.269244 69.4655 1.9067 66.953 4.17984C65.5772 5.4211 64.306 6.93155 63.3788 8.54668C62.7432 5.90713 60.171 3.21525 57.3445 2.91615C55.8939 2.75913 54.361 3.09561 53.2319 4.01534C51.3924 5.51831 51.0036 8.18776 51.2803 10.5432C51.8486 15.3885 54.4283 20.6377 58.8998 23.0006C59.7821 23.4642 60.9486 23.8082 62.0702 23.5764C61.816 23.5614 61.5543 23.4717 61.315 23.3446C56.4696 20.8097 53.202 16.0241 53.0076 10.5058C52.9403 8.48686 53.4338 6.16885 55.8415 5.6529C56.3276 5.54822 56.8435 5.55569 57.337 5.63047C60.2757 6.10155 62.6759 8.24758 63.0199 11.1713C65.0612 8.42704 67.1998 6.09407 70.1908 4.44155C71.7162 3.5966 73.4808 3.03579 75.2156 3.17786C76.2625 3.26759 77.3018 3.65642 78.0346 4.40417C78.9768 5.37624 79.2235 6.86425 78.9618 8.19524C78.7001 9.52622 77.9972 10.7226 77.2644 11.8517C73.8772 17.056 69.1888 21.2135 64.4855 25.0419C62.4366 26.7094 60.0812 28.2348 57.9128 29.7453C57.8231 29.8051 57.1576 30.2313 57.0604 30.2986C55.6845 29.2218 54.3759 28.1002 52.8805 27.188C48.6333 24.5933 43.8178 23.1875 38.8602 24.04C37.0133 24.354 35.286 25.3485 34.4037 27.0534C32.8857 29.9696 34.4037 33.1251 36.9684 34.7851C39.6603 36.5198 42.6513 36.5722 45.7619 36.2432C49.0296 35.8992 51.8411 35.0543 54.9293 33.312C55.7069 32.8708 56.5743 32.3399 56.5743 32.3399C59.1765 34.314 62.9152 37.0881 65.6146 39.1145C63.6031 40.3558 61.6291 41.5821 59.5728 42.7635C50.7942 47.8108 42.2475 52.8955 31.8165 53.1572C24.8325 53.3292 18.2 52.2748 13.3172 46.5396C10.4908 43.2271 10.6852 38.1649 13.4593 34.8299C14.0575 34.1121 14.738 33.4616 15.7998 32.3325C9.03266 34.6505 5.55564 42.1429 10.0571 48.3417C11.6647 50.5475 14.1098 52.6188 16.6298 53.6058C26.2383 57.3745 36.1534 56.5818 45.5152 53.0674C52.372 50.4952 61.3748 44.7002 67.6559 40.8268C72.6733 44.416 78.0421 47.8856 83.71 50.6522V50.6597ZM40.9464 34.5234C38.2321 34.1046 36.946 31.7118 37.2601 29.7677C37.6564 27.345 39.5631 26.5599 41.6344 26.4028C45.2609 26.1262 50.9737 27.8909 55.2508 31.3679C55.2508 31.3679 48.6258 35.7048 40.9464 34.5234ZM69.0318 39.9296C71.9554 38.0826 77.0252 35.3758 80.734 33.6634C88.9966 29.8499 99.3155 26.2757 108.273 30.0444C113.71 32.3325 117.314 37.9032 115.624 43.8403C113.567 51.0859 105.634 53.2469 98.9341 52.5365C92.3988 51.8411 85.7364 49.4857 79.9115 46.5247C76.1578 44.6179 72.3144 42.5915 69.0318 39.9296Z" fill="white"/>
</svg>
