<svg width="173" height="120" viewBox="0 0 173 120" fill="none" xmlns="http://www.w3.org/2000/svg">
<g clip-path="url(#clip0_8_42)">
<path d="M0 97.9399H8.64V98.8599H5.86V110.95C5.86 112.48 6.02 113.77 6.35 114.83C7.1 117.25 8.91 118.46 11.78 118.46C12.06 118.46 12.34 118.45 12.63 118.42C16.01 118.07 17.71 115.61 17.71 111.05V98.8599H14.89V97.9399H21.76V98.8599H18.94V110.84C18.94 112.16 18.81 113.33 18.55 114.36C17.68 117.74 15.18 119.44 11.04 119.44C5.61 119.42 2.88 116.66 2.83 111.16V98.8599H0V97.9399Z" fill="white"/>
<path d="M40.6301 97.9399H47.8601V98.8599H45.0401L45.0201 119.09H43.4001L29.5701 101.86V118.18H31.6501C31.7701 118.18 31.8801 118.19 32.0001 118.22C32.3801 118.29 32.5601 118.58 32.5601 119.1H25.3301V118.18H28.1501V98.8699H25.3301V97.9499H30.2301L43.6201 114.66V98.8699H40.6201V97.9499L40.6301 97.9399Z" fill="white"/>
<path d="M52.3198 119.08V118.16H55.1398V98.8499H52.3198V97.9299H60.9598V98.8499H58.1798V118.16H60.0498C60.1698 118.16 60.2798 118.17 60.3998 118.2C60.7798 118.27 60.9598 118.56 60.9598 119.08H52.3198Z" fill="white"/>
<path d="M76.0301 119.08H75.2501C75.1101 119.08 74.9701 119.02 74.8701 118.92C74.5301 118.57 74.1401 117.8 73.7101 116.65L67.0101 98.8499H64.8901V97.9299H72.8601V98.8499H70.0401L76.4201 115.49L82.3101 98.8499H79.4901V97.9299H85.4101V98.8499H83.6501L76.4501 119.08H76.0301Z" fill="white"/>
<path d="M106.98 99.66C109.68 101.68 111.03 104.63 111.03 108.51C111.03 111.82 109.91 114.53 107.68 116.62C105.68 118.5 103.3 119.44 100.53 119.44C98.0601 119.44 95.8801 118.69 93.9701 117.18C91.3601 115.11 90.0601 112.18 90.0601 108.37C90.0601 105.08 91.1601 102.41 93.3701 100.37C95.3901 98.51 97.8101 97.59 100.63 97.59C103.03 97.59 105.14 98.28 106.97 99.67L106.98 99.66ZM103.24 117.92C106.08 116.68 107.5 113.49 107.5 108.37C107.48 101.88 105.15 98.62 100.52 98.57C99.8601 98.57 99.2401 98.64 98.6501 98.78C95.2701 99.67 93.5701 102.92 93.5701 108.51C93.5701 110.2 93.7301 111.69 94.0601 112.99C95.0201 116.63 97.2101 118.45 100.62 118.45C101.56 118.45 102.43 118.27 103.23 117.92H103.24Z" fill="white"/>
<path d="M117.08 119.08V118.16H119.9V98.8499H117.08V97.9299H125.72V98.8499H122.94V118.16H124.81C124.93 118.16 125.04 118.17 125.16 118.2C125.54 118.27 125.72 118.56 125.72 119.08H117.08Z" fill="white"/>
<path d="M142.35 119.43C139.11 119.43 136.48 118.35 134.46 116.19C132.56 114.1 131.6 111.51 131.6 108.44C131.6 105.9 132.28 103.66 133.64 101.71C135.61 98.96 138.46 97.59 142.17 97.59C143.3 97.59 144.4 97.72 145.48 97.98C147.12 98.4 148.29 98.96 148.97 99.64C148.97 99.01 149.01 98.55 149.08 98.27C149.2 97.94 149.51 97.78 150.03 97.78L150.14 104.27H149.29C149.12 103.75 148.93 103.25 148.69 102.75C147.37 99.98 145.25 98.59 142.31 98.59C141.02 98.59 139.84 98.92 138.79 99.58C136.37 101.15 135.16 104.14 135.16 108.53C135.16 110.57 135.43 112.35 135.97 113.85C137.07 116.93 139.15 118.47 142.21 118.47C145.8 118.45 148.2 116.5 149.4 112.62H150.25V119.28C149.97 119.28 149.74 119.24 149.58 119.17C149.3 119.03 149.16 118.46 149.16 117.48C147 118.77 144.73 119.43 142.36 119.45L142.35 119.43Z" fill="white"/>
<path d="M171.66 104.28L171.17 102.62C171.15 102.53 171.11 102.41 171.06 102.27C170.33 99.9899 169.12 98.8499 167.43 98.8499H161.79V107.66H169.05V108.68H161.79V118.16H167.43C167.83 118.16 168.21 118.1 168.56 117.98C169.71 117.58 170.58 116.38 171.17 114.39L171.66 112.73H172.36L172.18 119.07H155.93V118.15H158.75V98.8399H155.93V97.9199H172.18L172.36 104.26H171.66V104.28Z" fill="white"/>
<path d="M111.95 67.75C118.35 70.87 125.03 73.33 131.94 74.68C139.58 76.16 148.26 76.28 154.69 71.22C160.5 66.64 162.82 58.44 161.01 51.37C158.13 40.14 146.52 35.07 135.82 34.62C121.99 34.04 110.13 39.69 98.4 46.15C92.52 49.39 89.52 51.23 89.52 51.23C84.5099 47.39 77.8 41.84 77.8 41.84C77.8 41.84 81.64 39.19 82.01 38.92C84.05 37.41 86.2599 35.69 88.24 34.1C92.1899 30.91 95.99 27.58 99.65 24.07C102.8 21.05 105.98 17.76 107.93 13.8C110.49 8.61004 109.5 0.630039 102.5 0.0400395C97.8 -0.359961 92.9 2.55004 89.54 5.59004C87.7 7.25004 86 9.27004 84.76 11.43C83.91 7.90004 80.47 4.30004 76.69 3.90004C74.75 3.69004 72.7 4.14004 71.19 5.37004C68.73 7.38004 68.21 10.95 68.58 14.1C69.34 20.58 72.79 27.6 78.77 30.76C79.95 31.38 81.51 31.84 83.01 31.53C82.67 31.51 82.32 31.39 82 31.22C75.52 27.83 71.15 21.43 70.89 14.05C70.8 11.35 71.46 8.25004 74.68 7.56004C75.33 7.42004 76.02 7.43004 76.68 7.53004C80.61 8.16004 83.82 11.03 84.28 14.94C87.01 11.27 89.87 8.15004 93.87 5.94004C95.91 4.81004 98.27 4.06004 100.59 4.25004C101.99 4.37004 103.38 4.89004 104.36 5.89004C105.62 7.19004 105.95 9.18004 105.6 10.96C105.25 12.74 104.31 14.34 103.33 15.85C98.8 22.81 92.53 28.37 86.24 33.49C83.5 35.72 80.35 37.76 77.45 39.78C77.3299 39.86 76.4399 40.43 76.31 40.52C74.47 39.08 72.72 37.58 70.72 36.36C65.04 32.89 58.6 31.01 51.97 32.15C49.5 32.57 47.19 33.9 46.01 36.18C43.98 40.08 46.01 44.3 49.44 46.52C53.04 48.84 57.04 48.91 61.2 48.47C65.57 48.01 69.33 46.88 73.46 44.55C74.5 43.96 75.66 43.25 75.66 43.25C79.14 45.89 84.14 49.6 87.75 52.31C85.06 53.97 82.42 55.61 79.67 57.19C67.93 63.94 56.5 70.74 42.55 71.09C33.21 71.32 24.34 69.91 17.81 62.24C14.03 57.81 14.29 51.04 18 46.58C18.8 45.62 19.71 44.75 21.13 43.24C12.08 46.34 7.42996 56.36 13.45 64.65C15.6 67.6 18.87 70.37 22.24 71.69C35.09 76.73 48.35 75.67 60.87 70.97C70.04 67.53 82.08 59.78 90.48 54.6C97.19 59.4 104.37 64.04 111.95 67.74V67.75ZM54.76 46.17C51.13 45.61 49.41 42.41 49.83 39.81C50.36 36.57 52.91 35.52 55.68 35.31C60.53 34.94 68.17 37.3 73.89 41.95C73.89 41.95 65.03 47.75 54.76 46.17ZM92.32 53.4C96.23 50.93 103.01 47.31 107.97 45.02C119.02 39.92 132.82 35.14 144.8 40.18C152.07 43.24 156.89 50.69 154.63 58.63C151.88 68.32 141.27 71.21 132.31 70.26C123.57 69.33 114.66 66.18 106.87 62.22C101.85 59.67 96.71 56.96 92.32 53.4Z" fill="white"/>
</g>
<defs>
<clipPath id="clip0_8_42">
<rect width="172.37" height="119.43" fill="white"/>
</clipPath>
</defs>
</svg>
