<svg width="20" height="20" viewBox="0 0 20 20" fill="none" xmlns="http://www.w3.org/2000/svg">
<g clip-path="url(#clip0_96_167)">
<path d="M11.2834 9.99974C11.2878 11.5012 10.6962 12.943 9.63837 14.0086C8.58059 15.0742 7.14314 15.6765 5.64169 15.6831C4.14024 15.6765 2.70279 15.0742 1.64501 14.0086C0.587232 12.943 -0.00440595 11.5012 2.47069e-05 9.99974C-0.00440595 8.49828 0.587232 7.05644 1.64501 5.99085C2.70279 4.92525 4.14024 4.32302 5.64169 4.31641C7.14314 4.32302 8.58059 4.92525 9.63837 5.99085C10.6962 7.05644 11.2878 8.49828 11.2834 9.99974ZM17.4667 9.99974C17.4667 12.9497 16.2084 15.3497 14.65 15.3497C13.0917 15.3497 11.825 12.9497 11.825 9.99974C11.825 7.04974 13.0917 4.64974 14.65 4.64974C16.2084 4.64974 17.4667 7.04974 17.4667 9.99974ZM20 9.99974C20 12.6414 19.5584 14.7914 19.0084 14.7914C18.4584 14.7914 18.0167 12.6414 18.0167 9.99974C18.0167 7.35807 18.4584 5.20807 19.0084 5.20807C19.5584 5.20807 20 7.35807 20 9.99974Z" fill="black"/>
</g>
<defs>
<clipPath id="clip0_96_167">
<rect width="20" height="20" fill="white"/>
</clipPath>
</defs>
</svg>
