<svg width="72" height="72" viewBox="0 0 72 72" fill="none" xmlns="http://www.w3.org/2000/svg">
<g opacity="0.4">
<path d="M10.3602 64.0385L10.2864 64.0371C9.861 64.023 7.65037 63.8817 6.17732 62.5008C4.66701 61.0847 4.48701 59.0484 4.46592 58.654C4.46381 58.6167 4.46311 58.5794 4.46311 58.5429V47.4511C4.44061 46.9948 4.41107 45.4507 4.92857 43.7372C5.42428 42.0933 6.036 41.0147 6.21178 40.7236L11.7798 30.8714C11.8079 30.8229 11.8375 30.7744 11.8691 30.728C12.0428 30.4699 12.9758 29.1438 14.2555 28.3486C15.602 27.5098 17.2319 27.4451 17.7001 27.4451H52.8733C52.9183 27.4451 52.9633 27.4458 53.0097 27.4486C53.3591 27.4711 55.1746 27.6244 56.5801 28.428C57.9217 29.1966 59.0024 30.5395 59.2042 30.7997C59.2457 30.8531 59.2844 30.9087 59.3202 30.9656L65.9331 41.445C65.9619 41.4914 65.9901 41.5392 66.0161 41.5884C66.1426 41.8317 66.7965 43.1177 67.1277 44.3679C67.4547 45.6054 67.5334 46.973 67.5454 47.2338L67.5468 47.3231V58.417C67.5545 59.0034 67.4462 61.0158 65.7763 62.512C64.195 63.9274 62.0659 64.0371 61.4514 64.0371L10.3602 64.0385Z" fill="#727272"/>
<path d="M9.79287 42.9708C9.67123 43.1874 9.29224 43.9031 8.97443 44.9578C8.63834 46.073 8.67842 47.115 8.68404 47.2296C8.68685 47.2795 8.68896 47.3302 8.68967 47.3794V58.4691L8.69318 58.5C8.7192 58.6997 8.84154 59.1827 9.05107 59.4007L9.0792 59.4309L9.11224 59.4549C9.40615 59.6714 10.1339 59.7959 10.3884 59.8113L61.455 59.812C61.8783 59.8064 62.6194 59.6658 62.9547 59.3656C63.255 59.0963 63.3225 58.6343 63.3225 58.5605L63.319 58.4325V47.3899C63.2958 46.9596 63.2121 46.1004 63.0398 45.4507C62.8444 44.7082 62.4063 43.8174 62.3205 43.6472L62.2966 43.6057L55.8068 33.3204L55.7864 33.2965C55.5403 32.9998 54.9504 32.367 54.48 32.097C54.0715 31.8635 53.2411 31.7138 52.8129 31.6737L52.7686 31.6716H17.7065C17.3782 31.6744 16.7693 31.7609 16.4873 31.9374C16.0901 32.1849 15.6211 32.7495 15.4277 33.0131L15.4108 33.0363L9.87724 42.8252L9.81748 42.9258L9.81818 42.9237C9.81678 42.9279 9.79287 42.9708 9.79287 42.9708Z" fill="#4B4B4B"/>
<path d="M35.8028 24.3457C34.6356 24.3443 33.6906 23.3993 33.6892 22.2321V10.0751C33.6899 8.90789 34.6356 7.9636 35.8021 7.96149C36.9686 7.96289 37.9143 8.90789 37.9164 10.0751V22.2321C37.915 23.3993 36.9693 24.3443 35.8028 24.3457ZM49.9722 24.2655C48.8057 24.2641 47.86 23.3184 47.8586 22.152C47.8586 21.6668 48.0259 21.1971 48.3304 20.8202L53.1616 14.862C53.3598 14.617 53.6103 14.4196 53.8948 14.2842C54.1792 14.1488 54.4904 14.0788 54.8055 14.0794C55.2934 14.0794 55.7533 14.2425 56.1337 14.5512C56.571 14.9027 56.8488 15.4153 56.9057 15.9736C56.9662 16.5312 56.8002 17.0895 56.4459 17.524L51.6147 23.4823C51.4175 23.7273 51.1678 23.9248 50.8839 24.0602C50.6001 24.1957 50.2895 24.2656 49.975 24.2648L49.9722 24.2655ZM21.8704 24.1038C21.5529 24.1045 21.2393 24.0332 20.9532 23.8954C20.6672 23.7575 20.4161 23.5567 20.2188 23.3079L15.4698 17.3496C14.7435 16.437 14.8933 15.108 15.8052 14.3796C16.1783 14.0798 16.6429 13.9172 17.1215 13.9191C17.7691 13.9191 18.3723 14.2095 18.7752 14.715L23.5248 20.6733C24.2512 21.5859 24.1021 22.9148 23.1909 23.6426C22.8165 23.9405 22.3524 24.1031 21.8739 24.1038H21.8704ZM35.883 55.3444C31.1748 55.3444 27.0834 52.1873 25.9359 47.6691L25.843 47.3041L7.07453 47.2929C5.90734 47.2908 4.96234 46.3451 4.96094 45.1779C4.96234 44.0114 5.90805 43.0671 7.07453 43.0657L27.7422 43.0791C28.9087 43.0819 29.8523 44.0269 29.8544 45.1934C29.8544 48.5156 32.5023 51.1172 35.8837 51.1172C39.2523 51.1172 41.8919 48.5156 41.8919 45.1934C41.894 44.0276 42.839 43.0819 44.0055 43.0791L64.4812 43.0657C65.647 43.0657 66.5948 44.0121 66.5955 45.1772C66.5962 46.343 65.6491 47.2915 64.484 47.2929L45.9046 47.3041L45.8118 47.6684C44.6643 52.1873 40.5827 55.3444 35.883 55.3444Z" fill="#727272"/>
</g>
</svg>
